# xmcd CD database file
#
# Track frame offsets:
#	150
#	19050
#	35502
#	54730
#	80072
#	98615
#	113987
#	144262
#	176440
#	193220
#	218092
#
# Disc length: 3094 seconds
#
# Revision: 0
# Processed by: cddbd v1.5.1PL0 Copyright (c) Steve Scherf et al.
# Submitted via: CDex 1.51
#
DISCID=950c140b
DTITLE=Table for Two - Live [CD 2v2)
DYEAR=1996
DGENRE=Jazz
TTITLE0=This babe loves me (Live)
TTITLE1=My Bugatti and me (Live)
TTITLE2=Bossa Nova in Brazil (Live)
TTITLE3=The Drum Boogie (Live)
TTITLE4=No more (Live)
TTITLE5=Schwing dein linkes Bein (Live)
TTITLE6=Hot Blooded Girl (Live)
TTITLE7=Gulf Port Boogie (Live)
TTITLE8=Letzte Nacht in Westsamoa (Live)
TTITLE9=If you want me (Live)
TTITLE10=Grad´ lustig is´ im Bayernland (Live)
EXTD=YEAR: 1996
EXTT0=
EXTT1=
EXTT2=
EXTT3=
EXTT4=
EXTT5=
EXTT6=
EXTT7=
EXTT8=
EXTT9=
EXTT10=
PLAYORDER=
